# Blender 4.2.1 LTS
# www.blender.org
o Cube
v 6.601544 6.601544 1.699131
v 6.601544 6.601544 -0.300869
v 6.601544 -6.601544 1.699124
v 6.601544 -6.601544 -0.300876
v -6.601544 6.601544 1.699131
v -6.601544 6.601544 -0.300869
v -6.601544 -6.601544 1.699124
v -6.601544 -6.601544 -0.300876
v -6.601544 6.244704 -0.638286
v -6.601544 5.887864 -0.850279
v -6.601544 5.531024 -0.961301
v -6.601544 5.174183 -0.986299
v -6.601544 4.817343 -0.904625
v -6.601544 4.460503 -0.737473
v -6.601544 4.103662 -0.450826
v -6.601544 3.746822 -0.045424
v -6.601544 3.389982 0.412568
v -6.601544 3.033142 0.794182
v -6.601544 2.676301 0.961908
v -6.601544 2.319461 0.848471
v -6.601544 1.962621 0.499788
v -6.601544 1.605781 0.045394
v -6.601544 1.248940 -0.378190
v -6.601544 0.892100 -0.690413
v -6.601544 0.535260 -0.879327
v -6.601544 0.178420 -0.974875
v -6.601544 -0.178420 -0.974876
v -6.601544 -0.535261 -0.879329
v -6.601544 -0.892101 -0.690414
v -6.601544 -1.248941 -0.378197
v -6.601544 -1.605781 0.045384
v -6.601544 -1.962621 0.499780
v -6.601544 -2.319462 0.848466
v -6.601544 -2.676302 0.961909
v -6.601544 -3.033142 0.794188
v -6.601544 -3.389983 0.412577
v -6.601544 -3.746823 -0.045415
v -6.601544 -4.103662 -0.450819
v -6.601544 -4.460503 -0.737469
v -6.601544 -4.817343 -0.904622
v -6.601544 -5.174183 -0.986298
v -6.601544 -5.531024 -0.961302
v -6.601544 -5.887864 -0.850282
v -6.601544 -6.244704 -0.638291
v 6.601544 6.244704 1.361714
v 6.601544 5.887864 1.149721
v 6.601544 5.531024 1.038699
v 6.601544 5.174183 1.013701
v 6.601544 4.817343 1.095375
v 6.601544 4.460503 1.262527
v 6.601544 4.103662 1.549174
v 6.601544 3.746822 1.954576
v 6.601544 3.389982 2.412568
v 6.601544 3.033142 2.794182
v 6.601544 2.676301 2.961908
v 6.601544 2.319461 2.848471
v 6.601544 1.962621 2.499788
v 6.601544 1.605781 2.045393
v 6.601544 1.248940 1.621810
v 6.601544 0.892100 1.309587
v 6.601544 0.535260 1.120673
v 6.601544 0.178420 1.025125
v 6.601544 -0.178420 1.025124
v 6.601544 -0.535261 1.120671
v 6.601544 -0.892101 1.309586
v 6.601544 -1.248941 1.621803
v 6.601544 -1.605781 2.045384
v 6.601544 -1.962621 2.499780
v 6.601544 -2.319462 2.848466
v 6.601544 -2.676302 2.961909
v 6.601544 -3.033142 2.794188
v 6.601544 -3.389983 2.412577
v 6.601544 -3.746823 1.954585
v 6.601544 -4.103662 1.549181
v 6.601544 -4.460503 1.262531
v 6.601544 -4.817343 1.095378
v 6.601544 -5.174183 1.013702
v 6.601544 -5.531024 1.038697
v 6.601544 -5.887864 1.149718
v 6.601544 -6.244704 1.361709
v -6.601544 -6.244704 1.361709
v -6.601544 -5.887864 1.149718
v -6.601544 -5.531024 1.038697
v -6.601544 -5.174183 1.013702
v -6.601544 -4.817343 1.095378
v -6.601544 -4.460503 1.262531
v -6.601544 -4.103662 1.549181
v -6.601544 -3.746822 1.954585
v -6.601544 -3.389982 2.412577
v -6.601544 -3.033142 2.794188
v -6.601544 -2.676301 2.961909
v -6.601544 -2.319461 2.848466
v -6.601544 -1.962621 2.499780
v -6.601544 -1.605781 2.045384
v -6.601544 -1.248940 1.621803
v -6.601544 -0.892100 1.309582
v -6.601544 -0.535260 1.120671
v -6.601544 -0.178420 1.025124
v -6.601544 0.178420 1.025125
v -6.601544 0.535261 1.120673
v -6.601544 0.892101 1.309591
v -6.601544 1.248941 1.621810
v -6.601544 1.605781 2.045393
v -6.601544 1.962621 2.499788
v -6.601544 2.319462 2.848471
v -6.601544 2.676302 2.961908
v -6.601544 3.033142 2.794182
v -6.601544 3.389983 2.412568
v -6.601544 3.746823 1.954576
v -6.601544 4.103662 1.549174
v -6.601544 4.460503 1.262527
v -6.601544 4.817343 1.095375
v -6.601544 5.174183 1.013701
v -6.601544 5.531024 1.038699
v -6.601544 5.887864 1.149721
v -6.601544 6.244704 1.361714
v 6.601544 -6.244704 -0.638291
v 6.601544 -5.887864 -0.850282
v 6.601544 -5.531024 -0.961302
v 6.601544 -5.174183 -0.986298
v 6.601544 -4.817343 -0.904622
v 6.601544 -4.460503 -0.737469
v 6.601544 -4.103662 -0.450819
v 6.601544 -3.746822 -0.045415
v 6.601544 -3.389982 0.412577
v 6.601544 -3.033142 0.794188
v 6.601544 -2.676301 0.961909
v 6.601544 -2.319461 0.848466
v 6.601544 -1.962621 0.499780
v 6.601544 -1.605781 0.045384
v 6.601544 -1.248940 -0.378197
v 6.601544 -0.892100 -0.690418
v 6.601544 -0.535260 -0.879329
v 6.601544 -0.178420 -0.974876
v 6.601544 0.178420 -0.974875
v 6.601544 0.535261 -0.879327
v 6.601544 0.892101 -0.690409
v 6.601544 1.248941 -0.378190
v 6.601544 1.605781 0.045394
v 6.601544 1.962621 0.499788
v 6.601544 2.319462 0.848471
v 6.601544 2.676302 0.961908
v 6.601544 3.033142 0.794182
v 6.601544 3.389983 0.412568
v 6.601544 3.746823 -0.045424
v 6.601544 4.103662 -0.450826
v 6.601544 4.460503 -0.737473
v 6.601544 4.817343 -0.904625
v 6.601544 5.174183 -0.986299
v 6.601544 5.531024 -0.961301
v 6.601544 5.887864 -0.850279
v 6.601544 6.244704 -0.638286
vn -0.0000 0.6871 0.7266
vn -0.0000 -1.0000 -0.0000
vn -1.0000 -0.0000 -0.0000
vn -0.0000 -0.6871 -0.7266
vn 1.0000 -0.0000 -0.0000
vn -0.0000 1.0000 -0.0000
vn -0.0000 0.6871 -0.7266
vn -0.0000 0.5108 -0.8597
vn -0.0000 0.2971 -0.9549
vn -0.0000 0.0699 -0.9976
vn -0.0000 -0.2231 -0.9748
vn -0.0000 -0.4242 -0.9056
vn -0.0000 -0.6263 -0.7796
vn -0.0000 -0.7506 -0.6607
vn -0.0000 -0.7888 -0.6146
vn -0.0000 -0.7304 -0.6830
vn -0.0000 -0.4254 -0.9050
vn -0.0000 0.3030 -0.9530
vn -0.0000 0.6989 -0.7152
vn -0.0000 0.7865 -0.6176
vn -0.0000 0.7648 -0.6443
vn -0.0000 0.6585 -0.7526
vn -0.0000 0.4679 -0.8838
vn -0.0000 0.2587 -0.9660
vn -0.0000 -0.0000 -1.0000
vn -0.0000 -0.2586 -0.9660
vn -0.0000 -0.4679 -0.8838
vn -0.0000 -0.6585 -0.7526
vn -0.0000 -0.7648 -0.6443
vn -0.0000 -0.7865 -0.6176
vn -0.0000 -0.6989 -0.7152
vn -0.0000 -0.3030 -0.9530
vn -0.0000 0.4254 -0.9050
vn -0.0000 0.7304 -0.6830
vn -0.0000 0.7888 -0.6146
vn -0.0000 0.7506 -0.6607
vn -0.0000 0.6263 -0.7796
vn -0.0000 0.4242 -0.9056
vn -0.0000 0.2231 -0.9748
vn -0.0000 -0.0699 -0.9976
vn -0.0000 -0.2971 -0.9549
vn -0.0000 -0.5107 -0.8597
vn -0.0000 -0.6871 0.7266
vn -0.0000 -0.5108 0.8597
vn -0.0000 -0.2971 0.9549
vn -0.0000 -0.0699 0.9976
vn -0.0000 0.2231 0.9748
vn -0.0000 0.4242 0.9056
vn -0.0000 0.6263 0.7796
vn -0.0000 0.7506 0.6607
vn -0.0000 0.7888 0.6146
vn -0.0000 0.7304 0.6830
vn -0.0000 0.4254 0.9050
vn -0.0000 -0.3030 0.9530
vn -0.0000 -0.6989 0.7152
vn -0.0000 -0.7865 0.6176
vn -0.0000 -0.7648 0.6443
vn -0.0000 -0.6585 0.7526
vn -0.0000 -0.4679 0.8838
vn -0.0000 -0.2587 0.9660
vn -0.0000 -0.0000 1.0000
vn -0.0000 0.2586 0.9660
vn -0.0000 0.4679 0.8838
vn -0.0000 0.6585 0.7526
vn -0.0000 0.7648 0.6443
vn -0.0000 0.7865 0.6176
vn -0.0000 0.6989 0.7152
vn -0.0000 0.3030 0.9530
vn -0.0000 -0.4254 0.9050
vn -0.0000 -0.7304 0.6830
vn -0.0000 -0.7888 0.6146
vn -0.0000 -0.7506 0.6607
vn -0.0000 -0.6263 0.7796
vn -0.0000 -0.4242 0.9056
vn -0.0000 -0.2231 0.9748
vn -0.0000 0.0699 0.9976
vn -0.0000 0.2971 0.9549
vn -0.0000 0.5107 0.8597
vt 0.625000 0.743243
vt 0.875000 0.743243
vt 0.875000 0.750000
vt 0.625000 0.750000
vt 0.375000 0.750000
vt 0.625000 1.000000
vt 0.375000 1.000000
vt 0.375000 0.243243
vt 0.625000 0.243243
vt 0.625000 0.250000
vt 0.375000 0.250000
vt 0.125000 0.743243
vt 0.375000 0.743243
vt 0.125000 0.750000
vt 0.625000 0.500000
vt 0.375000 0.500000
vt 0.625000 0.506757
vt 0.375000 0.506757
vt 0.625000 0.513514
vt 0.375000 0.513514
vt 0.625000 0.520270
vt 0.375000 0.520270
vt 0.625000 0.527027
vt 0.375000 0.527027
vt 0.625000 0.533784
vt 0.375000 0.533784
vt 0.625000 0.540541
vt 0.375000 0.540541
vt 0.625000 0.547297
vt 0.375000 0.547297
vt 0.625000 0.554054
vt 0.375000 0.554054
vt 0.625000 0.560811
vt 0.375000 0.560811
vt 0.625000 0.567568
vt 0.375000 0.567568
vt 0.625000 0.574324
vt 0.375000 0.574324
vt 0.625000 0.581081
vt 0.375000 0.581081
vt 0.625000 0.587838
vt 0.375000 0.587838
vt 0.625000 0.594595
vt 0.375000 0.594595
vt 0.625000 0.601351
vt 0.375000 0.601351
vt 0.625000 0.608108
vt 0.375000 0.608108
vt 0.625000 0.614865
vt 0.375000 0.614865
vt 0.625000 0.621622
vt 0.375000 0.621622
vt 0.625000 0.628378
vt 0.375000 0.628378
vt 0.625000 0.635135
vt 0.375000 0.635135
vt 0.625000 0.641892
vt 0.375000 0.641892
vt 0.625000 0.648649
vt 0.375000 0.648649
vt 0.625000 0.655405
vt 0.375000 0.655405
vt 0.625000 0.662162
vt 0.375000 0.662162
vt 0.625000 0.668919
vt 0.375000 0.668919
vt 0.625000 0.675676
vt 0.375000 0.675676
vt 0.625000 0.682432
vt 0.375000 0.682432
vt 0.625000 0.689189
vt 0.375000 0.689189
vt 0.625000 0.695946
vt 0.375000 0.695946
vt 0.625000 0.702703
vt 0.375000 0.702703
vt 0.625000 0.709459
vt 0.375000 0.709459
vt 0.625000 0.716216
vt 0.375000 0.716216
vt 0.625000 0.722973
vt 0.375000 0.722973
vt 0.625000 0.729730
vt 0.375000 0.729730
vt 0.625000 0.736486
vt 0.375000 0.736486
vt 0.125000 0.500000
vt 0.125000 0.506757
vt 0.125000 0.513514
vt 0.125000 0.520270
vt 0.125000 0.527027
vt 0.125000 0.533784
vt 0.125000 0.540541
vt 0.125000 0.547297
vt 0.125000 0.554054
vt 0.125000 0.560811
vt 0.125000 0.567568
vt 0.125000 0.574324
vt 0.125000 0.581081
vt 0.125000 0.587838
vt 0.125000 0.594595
vt 0.125000 0.601351
vt 0.125000 0.608108
vt 0.125000 0.614865
vt 0.125000 0.621622
vt 0.125000 0.628378
vt 0.125000 0.635135
vt 0.125000 0.641892
vt 0.125000 0.648649
vt 0.125000 0.655405
vt 0.125000 0.662162
vt 0.125000 0.668919
vt 0.125000 0.675676
vt 0.125000 0.682432
vt 0.125000 0.689189
vt 0.125000 0.695946
vt 0.125000 0.702703
vt 0.125000 0.709459
vt 0.125000 0.716216
vt 0.125000 0.722973
vt 0.125000 0.729730
vt 0.125000 0.736486
vt 0.375000 0.000000
vt 0.625000 0.000000
vt 0.625000 0.006757
vt 0.375000 0.006757
vt 0.625000 0.013514
vt 0.375000 0.013514
vt 0.625000 0.020270
vt 0.375000 0.020270
vt 0.625000 0.027027
vt 0.375000 0.027027
vt 0.625000 0.033784
vt 0.375000 0.033784
vt 0.625000 0.040541
vt 0.375000 0.040541
vt 0.625000 0.047297
vt 0.375000 0.047297
vt 0.625000 0.054054
vt 0.375000 0.054054
vt 0.625000 0.060811
vt 0.375000 0.060811
vt 0.625000 0.067568
vt 0.375000 0.067568
vt 0.625000 0.074324
vt 0.375000 0.074324
vt 0.625000 0.081081
vt 0.375000 0.081081
vt 0.625000 0.087838
vt 0.375000 0.087838
vt 0.625000 0.094595
vt 0.375000 0.094595
vt 0.625000 0.101351
vt 0.375000 0.101351
vt 0.625000 0.108108
vt 0.375000 0.108108
vt 0.625000 0.114865
vt 0.375000 0.114865
vt 0.625000 0.121622
vt 0.375000 0.121622
vt 0.625000 0.128378
vt 0.375000 0.128378
vt 0.625000 0.135135
vt 0.375000 0.135135
vt 0.625000 0.141892
vt 0.375000 0.141892
vt 0.625000 0.148649
vt 0.375000 0.148649
vt 0.625000 0.155405
vt 0.375000 0.155405
vt 0.625000 0.162162
vt 0.375000 0.162162
vt 0.625000 0.168919
vt 0.375000 0.168919
vt 0.625000 0.175676
vt 0.375000 0.175676
vt 0.625000 0.182432
vt 0.375000 0.182432
vt 0.625000 0.189189
vt 0.375000 0.189189
vt 0.625000 0.195946
vt 0.375000 0.195946
vt 0.625000 0.202703
vt 0.375000 0.202703
vt 0.625000 0.209459
vt 0.375000 0.209459
vt 0.625000 0.216216
vt 0.375000 0.216216
vt 0.625000 0.222973
vt 0.375000 0.222973
vt 0.625000 0.229730
vt 0.375000 0.229730
vt 0.625000 0.236486
vt 0.375000 0.236486
vt 0.875000 0.500000
vt 0.875000 0.506757
vt 0.875000 0.513514
vt 0.875000 0.520270
vt 0.875000 0.527027
vt 0.875000 0.533784
vt 0.875000 0.540541
vt 0.875000 0.547297
vt 0.875000 0.554054
vt 0.875000 0.560811
vt 0.875000 0.567568
vt 0.875000 0.574324
vt 0.875000 0.581081
vt 0.875000 0.587838
vt 0.875000 0.594595
vt 0.875000 0.601351
vt 0.875000 0.608108
vt 0.875000 0.614865
vt 0.875000 0.621622
vt 0.875000 0.628378
vt 0.875000 0.635135
vt 0.875000 0.641892
vt 0.875000 0.648649
vt 0.875000 0.655405
vt 0.875000 0.662162
vt 0.875000 0.668919
vt 0.875000 0.675676
vt 0.875000 0.682432
vt 0.875000 0.689189
vt 0.875000 0.695946
vt 0.875000 0.702703
vt 0.875000 0.709459
vt 0.875000 0.716216
vt 0.875000 0.722973
vt 0.875000 0.729730
vt 0.875000 0.736486
s 0
f 80/1/1 81/2/1 7/3/1 3/4/1
f 4/5/2 3/4/2 7/6/2 8/7/2
f 9/8/3 116/9/3 5/10/3 6/11/3
f 44/12/4 117/13/4 4/5/4 8/14/4
f 117/13/5 80/1/5 3/4/5 4/5/5
f 6/11/6 5/10/6 1/15/6 2/16/6
f 2/16/5 1/15/5 45/17/5 152/18/5
f 152/18/5 45/17/5 46/19/5 151/20/5
f 151/20/5 46/19/5 47/21/5 150/22/5
f 150/22/5 47/21/5 48/23/5 149/24/5
f 149/24/5 48/23/5 49/25/5 148/26/5
f 148/26/5 49/25/5 50/27/5 147/28/5
f 147/28/5 50/27/5 51/29/5 146/30/5
f 146/30/5 51/29/5 52/31/5 145/32/5
f 145/32/5 52/31/5 53/33/5 144/34/5
f 144/34/5 53/33/5 54/35/5 143/36/5
f 143/36/5 54/35/5 55/37/5 142/38/5
f 142/38/5 55/37/5 56/39/5 141/40/5
f 141/40/5 56/39/5 57/41/5 140/42/5
f 140/42/5 57/41/5 58/43/5 139/44/5
f 139/44/5 58/43/5 59/45/5 138/46/5
f 138/46/5 59/45/5 60/47/5 137/48/5
f 137/48/5 60/47/5 61/49/5 136/50/5
f 136/50/5 61/49/5 62/51/5 135/52/5
f 135/52/5 62/51/5 63/53/5 134/54/5
f 134/54/5 63/53/5 64/55/5 133/56/5
f 133/56/5 64/55/5 65/57/5 132/58/5
f 132/58/5 65/57/5 66/59/5 131/60/5
f 131/60/5 66/59/5 67/61/5 130/62/5
f 130/62/5 67/61/5 68/63/5 129/64/5
f 129/64/5 68/63/5 69/65/5 128/66/5
f 128/66/5 69/65/5 70/67/5 127/68/5
f 127/68/5 70/67/5 71/69/5 126/70/5
f 126/70/5 71/69/5 72/71/5 125/72/5
f 125/72/5 72/71/5 73/73/5 124/74/5
f 124/74/5 73/73/5 74/75/5 123/76/5
f 123/76/5 74/75/5 75/77/5 122/78/5
f 122/78/5 75/77/5 76/79/5 121/80/5
f 121/80/5 76/79/5 77/81/5 120/82/5
f 120/82/5 77/81/5 78/83/5 119/84/5
f 119/84/5 78/83/5 79/85/5 118/86/5
f 118/86/5 79/85/5 80/1/5 117/13/5
f 6/87/7 2/16/7 152/18/7 9/88/7
f 9/88/8 152/18/8 151/20/8 10/89/8
f 10/89/9 151/20/9 150/22/9 11/90/9
f 11/90/10 150/22/10 149/24/10 12/91/10
f 12/91/11 149/24/11 148/26/11 13/92/11
f 13/92/12 148/26/12 147/28/12 14/93/12
f 14/93/13 147/28/13 146/30/13 15/94/13
f 15/94/14 146/30/14 145/32/14 16/95/14
f 16/95/15 145/32/15 144/34/15 17/96/15
f 17/96/16 144/34/16 143/36/16 18/97/16
f 18/97/17 143/36/17 142/38/17 19/98/17
f 19/98/18 142/38/18 141/40/18 20/99/18
f 20/99/19 141/40/19 140/42/19 21/100/19
f 21/100/20 140/42/20 139/44/20 22/101/20
f 22/101/21 139/44/21 138/46/21 23/102/21
f 23/102/22 138/46/22 137/48/22 24/103/22
f 24/103/23 137/48/23 136/50/23 25/104/23
f 25/104/24 136/50/24 135/52/24 26/105/24
f 26/105/25 135/52/25 134/54/25 27/106/25
f 27/106/26 134/54/26 133/56/26 28/107/26
f 28/107/27 133/56/27 132/58/27 29/108/27
f 29/108/28 132/58/28 131/60/28 30/109/28
f 30/109/29 131/60/29 130/62/29 31/110/29
f 31/110/30 130/62/30 129/64/30 32/111/30
f 32/111/31 129/64/31 128/66/31 33/112/31
f 33/112/32 128/66/32 127/68/32 34/113/32
f 34/113/33 127/68/33 126/70/33 35/114/33
f 35/114/34 126/70/34 125/72/34 36/115/34
f 36/115/35 125/72/35 124/74/35 37/116/35
f 37/116/36 124/74/36 123/76/36 38/117/36
f 38/117/37 123/76/37 122/78/37 39/118/37
f 39/118/38 122/78/38 121/80/38 40/119/38
f 40/119/39 121/80/39 120/82/39 41/120/39
f 41/120/40 120/82/40 119/84/40 42/121/40
f 42/121/41 119/84/41 118/86/41 43/122/41
f 43/122/42 118/86/42 117/13/42 44/12/42
f 8/123/3 7/124/3 81/125/3 44/126/3
f 44/126/3 81/125/3 82/127/3 43/128/3
f 43/128/3 82/127/3 83/129/3 42/130/3
f 42/130/3 83/129/3 84/131/3 41/132/3
f 41/132/3 84/131/3 85/133/3 40/134/3
f 40/134/3 85/133/3 86/135/3 39/136/3
f 39/136/3 86/135/3 87/137/3 38/138/3
f 38/138/3 87/137/3 88/139/3 37/140/3
f 37/140/3 88/139/3 89/141/3 36/142/3
f 36/142/3 89/141/3 90/143/3 35/144/3
f 35/144/3 90/143/3 91/145/3 34/146/3
f 34/146/3 91/145/3 92/147/3 33/148/3
f 33/148/3 92/147/3 93/149/3 32/150/3
f 32/150/3 93/149/3 94/151/3 31/152/3
f 31/152/3 94/151/3 95/153/3 30/154/3
f 30/154/3 95/153/3 96/155/3 29/156/3
f 29/156/3 96/155/3 97/157/3 28/158/3
f 28/158/3 97/157/3 98/159/3 27/160/3
f 27/160/3 98/159/3 99/161/3 26/162/3
f 26/162/3 99/161/3 100/163/3 25/164/3
f 25/164/3 100/163/3 101/165/3 24/166/3
f 24/166/3 101/165/3 102/167/3 23/168/3
f 23/168/3 102/167/3 103/169/3 22/170/3
f 22/170/3 103/169/3 104/171/3 21/172/3
f 21/172/3 104/171/3 105/173/3 20/174/3
f 20/174/3 105/173/3 106/175/3 19/176/3
f 19/176/3 106/175/3 107/177/3 18/178/3
f 18/178/3 107/177/3 108/179/3 17/180/3
f 17/180/3 108/179/3 109/181/3 16/182/3
f 16/182/3 109/181/3 110/183/3 15/184/3
f 15/184/3 110/183/3 111/185/3 14/186/3
f 14/186/3 111/185/3 112/187/3 13/188/3
f 13/188/3 112/187/3 113/189/3 12/190/3
f 12/190/3 113/189/3 114/191/3 11/192/3
f 11/192/3 114/191/3 115/193/3 10/194/3
f 10/194/3 115/193/3 116/9/3 9/8/3
f 1/15/43 5/195/43 116/196/43 45/17/43
f 45/17/44 116/196/44 115/197/44 46/19/44
f 46/19/45 115/197/45 114/198/45 47/21/45
f 47/21/46 114/198/46 113/199/46 48/23/46
f 48/23/47 113/199/47 112/200/47 49/25/47
f 49/25/48 112/200/48 111/201/48 50/27/48
f 50/27/49 111/201/49 110/202/49 51/29/49
f 51/29/50 110/202/50 109/203/50 52/31/50
f 52/31/51 109/203/51 108/204/51 53/33/51
f 53/33/52 108/204/52 107/205/52 54/35/52
f 54/35/53 107/205/53 106/206/53 55/37/53
f 55/37/54 106/206/54 105/207/54 56/39/54
f 56/39/55 105/207/55 104/208/55 57/41/55
f 57/41/56 104/208/56 103/209/56 58/43/56
f 58/43/57 103/209/57 102/210/57 59/45/57
f 59/45/58 102/210/58 101/211/58 60/47/58
f 60/47/59 101/211/59 100/212/59 61/49/59
f 61/49/60 100/212/60 99/213/60 62/51/60
f 62/51/61 99/213/61 98/214/61 63/53/61
f 63/53/62 98/214/62 97/215/62 64/55/62
f 64/55/63 97/215/63 96/216/63 65/57/63
f 65/57/64 96/216/64 95/217/64 66/59/64
f 66/59/65 95/217/65 94/218/65 67/61/65
f 67/61/66 94/218/66 93/219/66 68/63/66
f 68/63/67 93/219/67 92/220/67 69/65/67
f 69/65/68 92/220/68 91/221/68 70/67/68
f 70/67/69 91/221/69 90/222/69 71/69/69
f 71/69/70 90/222/70 89/223/70 72/71/70
f 72/71/71 89/223/71 88/224/71 73/73/71
f 73/73/72 88/224/72 87/225/72 74/75/72
f 74/75/73 87/225/73 86/226/73 75/77/73
f 75/77/74 86/226/74 85/227/74 76/79/74
f 76/79/75 85/227/75 84/228/75 77/81/75
f 77/81/76 84/228/76 83/229/76 78/83/76
f 78/83/77 83/229/77 82/230/77 79/85/77
f 79/85/78 82/230/78 81/2/78 80/1/78
